<?xml version="1.0" standalone="no"?>
<!DOCTYPE svg PUBLIC "-//W3C//DTD SVG 20010904//EN"
 "http://www.w3.org/TR/2001/REC-SVG-20010904/DTD/svg10.dtd">
<svg version="1.0" xmlns="http://www.w3.org/2000/svg"
 width="1060.000000pt" height="1060.000000pt" viewBox="0 0 1060.000000 1060.000000"
 preserveAspectRatio="xMidYMid meet">
<metadata>
Created by potrace 1.14, written by Peter Selinger 2001-2017
</metadata>
<g transform="translate(0.000000,1060.000000) scale(0.100000,-0.100000)"
fill="#000000" stroke="none">
<path d="M8732 8625 c-44 -19 -147 -22 -199 -6 -27 9 -54 11 -80 6 -21 -5 -41
-9 -45 -9 -3 -1 -10 -4 -14 -8 -4 -5 -18 -8 -30 -8 -13 0 -25 -4 -28 -9 -3 -5
-18 -12 -32 -15 -15 -4 -42 -18 -61 -31 -24 -16 -44 -22 -62 -18 -73 14 -93 8
-117 -40 -23 -44 -19 -42 -82 -42 -73 -1 -149 -47 -175 -106 -11 -26 -29 -45
-55 -58 -22 -11 -59 -35 -83 -53 -24 -18 -64 -46 -87 -62 -24 -17 -53 -48 -64
-70 -24 -46 -147 -176 -197 -208 -36 -22 -90 -100 -131 -186 -14 -29 -29 -52
-35 -52 -5 1 -25 9 -44 19 -25 13 -38 30 -50 65 -14 42 -23 52 -73 79 -31 18
-78 47 -104 65 -26 17 -55 32 -65 32 -10 0 -20 4 -23 9 -3 5 -26 12 -52 16
-49 7 -167 56 -178 74 -4 6 -22 19 -39 28 -29 15 -43 18 -88 22 -8 0 -24 9
-35 19 -27 25 -139 92 -164 98 -11 2 -30 6 -42 9 -13 3 -52 19 -88 36 -36 17
-74 35 -85 40 -28 13 -84 18 -90 8 -8 -11 -51 -1 -99 23 -22 11 -42 20 -43 20
-2 -1 -20 6 -40 15 -43 19 -52 19 -109 9 -26 -4 -50 -3 -63 3 -49 26 -57 28
-80 24 -14 -2 -38 -10 -54 -18 -27 -13 -31 -12 -68 12 -21 14 -53 26 -71 26
-46 0 -152 -16 -214 -32 -18 -5 -51 -7 -75 -5 -145 15 -162 13 -269 -23 -58
-19 -118 -41 -135 -48 -53 -23 -78 -28 -150 -30 -84 -3 -122 -12 -129 -30 -7
-19 -64 -48 -81 -41 -7 2 -36 -1 -64 -9 -28 -7 -54 -14 -56 -14 -27 -4 -55
-15 -55 -22 0 -5 -5 -9 -12 -9 -6 0 -19 -7 -27 -14 -9 -8 -37 -16 -61 -17 -51
-3 -157 -54 -165 -80 -10 -30 -54 -69 -77 -69 -40 0 -146 -58 -174 -96 -49
-64 -184 -113 -220 -79 -13 13 -54 98 -54 114 0 17 -63 113 -106 161 -20 22
-53 48 -73 57 -20 10 -45 29 -56 43 -11 14 -44 48 -74 75 -30 28 -70 65 -90
83 -29 26 -43 32 -79 32 -67 0 -153 45 -177 92 -10 21 -25 40 -34 43 -15 4
-58 0 -92 -11 -11 -3 -31 10 -56 36 -36 38 -43 41 -103 45 -36 2 -76 6 -90 9
-14 2 -45 7 -70 10 -78 10 -93 15 -116 37 -32 30 -153 45 -199 24 -28 -12 -68
-13 -82 -3 -30 23 -127 11 -258 -31 -49 -16 -113 -31 -141 -33 -27 -2 -66 -13
-85 -24 -35 -21 -149 -53 -184 -52 -57 2 -66 -3 -95 -50 -23 -38 -40 -52 -82
-70 -30 -12 -75 -22 -101 -22 -35 0 -47 -4 -47 -15 0 -8 -4 -15 -10 -15 -5 0
-10 -10 -10 -21 0 -20 -88 -118 -107 -120 -4 0 -26 -2 -48 -5 -33 -3 -49 -13
-90 -57 -99 -104 -165 -206 -165 -254 0 -14 -25 -48 -68 -91 -87 -89 -92 -95
-98 -129 -3 -15 -12 -40 -20 -55 -8 -16 -22 -43 -31 -60 -10 -18 -19 -60 -20
-93 -3 -51 -5 -79 -12 -127 -1 -4 -12 -19 -27 -33 -14 -14 -32 -42 -41 -63
-18 -42 -26 -139 -12 -147 5 -4 9 -38 9 -76 0 -65 -15 -110 -43 -130 -11 -8 2
-218 15 -244 6 -11 20 -30 31 -43 12 -12 23 -32 25 -45 8 -34 6 -118 -2 -158
-7 -33 -5 -40 23 -67 33 -31 74 -121 86 -187 4 -22 10 -44 14 -50 3 -5 7 -21
9 -34 4 -33 25 -72 51 -95 12 -11 21 -25 21 -31 0 -7 7 -18 15 -25 9 -7 14
-15 11 -17 -2 -3 13 -35 33 -71 31 -55 47 -72 89 -95 43 -23 52 -34 58 -63 4
-22 22 -52 48 -78 46 -48 75 -66 106 -66 21 0 45 -21 85 -72 11 -14 38 -31 60
-38 22 -7 58 -30 80 -51 44 -41 198 -138 230 -144 81 -15 96 -19 185 -49 41
-14 96 -36 121 -49 37 -19 58 -23 114 -21 38 1 75 0 82 -3 19 -8 16 -38 -11
-91 -14 -28 -22 -59 -19 -77 4 -38 28 -152 32 -157 11 -15 7 -113 -5 -150 -15
-45 -14 -49 10 -103 14 -30 26 -66 26 -78 0 -12 5 -39 11 -61 6 -21 12 -47 14
-58 7 -35 18 -63 34 -87 8 -13 16 -29 17 -35 1 -6 9 -38 18 -71 9 -33 18 -71
20 -85 3 -14 5 -25 6 -25 1 0 3 -13 4 -30 2 -16 6 -41 10 -55 12 -38 77 -130
92 -130 8 0 21 -11 29 -24 14 -21 18 -36 24 -92 0 -5 32 -41 69 -80 37 -38 76
-82 86 -99 10 -16 36 -53 57 -81 22 -28 46 -73 54 -100 13 -42 25 -57 87 -106
40 -32 94 -78 120 -102 60 -56 133 -116 142 -116 11 0 50 -42 74 -81 12 -20
42 -49 67 -64 25 -16 57 -46 71 -66 20 -30 34 -39 67 -44 26 -4 62 -22 93 -46
27 -21 66 -45 85 -53 18 -8 50 -31 69 -51 47 -49 133 -89 187 -86 29 1 48 -4
60 -16 30 -30 75 -55 102 -59 47 -5 70 -16 76 -35 12 -37 54 -59 102 -53 35 4
56 -1 101 -23 31 -15 59 -30 62 -34 9 -12 151 -90 171 -94 11 -2 24 -7 31 -11
7 -4 41 -7 76 -6 47 1 74 -4 105 -19 37 -19 46 -20 92 -10 49 12 51 11 75 -16
49 -56 55 -57 106 -33 37 19 49 20 67 11 12 -7 35 -19 51 -28 25 -14 37 -14
78 -3 l48 12 36 -36 c42 -42 50 -43 103 -15 32 16 52 20 103 16 35 -3 63 -6
63 -7 0 -2 36 -11 60 -14 11 -1 36 -10 55 -18 27 -12 60 -15 140 -13 58 2 110
4 115 5 6 1 28 -2 51 -6 33 -5 46 -2 78 20 30 20 46 24 74 20 127 -20 336 -5
417 30 17 7 45 19 63 26 17 7 32 16 32 20 0 10 33 6 86 -10 38 -11 44 -10 80
13 36 23 51 28 123 42 12 2 37 13 55 23 18 10 72 31 122 47 49 15 94 31 99 35
6 4 24 6 40 3 64 -8 87 -5 118 18 20 14 53 26 89 30 36 4 68 15 90 31 18 14
40 28 48 32 28 13 63 34 69 43 9 12 90 50 147 68 29 9 61 25 73 36 11 10 24
19 28 19 4 0 28 18 52 40 40 36 48 40 88 36 51 -4 77 14 95 64 8 25 33 42 73
49 6 1 19 8 30 15 11 7 37 18 57 25 22 7 51 29 70 52 18 22 55 52 81 66 29 16
56 41 68 62 11 20 36 47 56 61 19 14 42 33 51 43 9 9 22 17 28 17 17 0 74 71
74 91 0 22 81 103 160 159 124 88 190 177 203 272 3 21 19 57 35 80 16 24 42
67 57 96 15 29 36 57 46 62 18 10 74 85 79 105 1 6 5 15 10 20 4 6 6 17 4 25
-16 78 -16 87 11 141 15 30 37 68 49 84 14 19 21 41 20 60 -4 48 6 84 32 112
13 14 24 33 24 41 0 24 -23 82 -32 82 -11 0 18 57 34 67 31 20 37 49 18 90
-11 25 -16 53 -13 74 10 71 4 264 -11 336 -7 34 26 38 79 10 44 -24 47 -24
112 -10 37 7 78 21 91 29 16 11 46 16 86 15 87 -1 229 49 293 103 10 10 57 34
104 53 46 20 86 40 89 43 3 4 28 15 56 24 37 12 60 28 84 58 18 22 52 49 75
59 50 22 58 32 74 81 12 37 99 128 123 128 27 0 66 46 74 85 5 29 26 62 76
119 41 48 73 95 80 120 7 23 17 46 23 53 51 58 113 160 126 208 17 63 18 73
10 103 -9 31 -1 54 34 90 13 12 30 50 38 84 15 58 14 64 -4 102 -16 35 -18 58
-15 151 3 92 7 116 26 148 19 31 21 45 14 85 -4 26 -8 49 -9 52 -1 3 -5 17 -9
33 -5 15 -12 27 -16 27 -25 0 -41 142 -22 191 12 30 5 74 -14 90 -8 6 -14 19
-14 28 0 9 -15 33 -34 53 -21 23 -41 60 -51 95 -9 32 -30 74 -46 94 -16 20
-30 50 -32 65 -2 16 -11 47 -21 69 -9 21 -18 46 -19 55 -5 27 -21 47 -56 68
-19 11 -85 70 -147 131 -97 95 -113 116 -119 151 -6 35 -16 48 -61 83 -39 31
-64 42 -91 43 -21 1 -43 2 -49 3 -6 1 -17 15 -25 32 -7 18 -22 42 -34 55 -26
28 -114 76 -126 68 -5 -3 -23 -7 -40 -9 -23 -3 -37 3 -62 29 -45 46 -116 78
-202 90 -16 2 -53 13 -81 24 -29 12 -60 21 -70 21 -11 0 -76 1 -145 1 -87 0
-138 4 -168 15 -52 18 -57 18 -99 0z"/>
</g>
</svg>
